<?xml version="1.0" encoding="UTF-8" standalone="no"?>
<svg
   width="16"
   height="16"
   version="1.1"
   id="svg3"
   sodipodi:docname="gimp-lock-symbolic.svg"
   inkscape:version="1.3.2 (091e20ef0f, 2023-11-25)"
   xmlns:inkscape="http://www.inkscape.org/namespaces/inkscape"
   xmlns:sodipodi="http://sodipodi.sourceforge.net/DTD/sodipodi-0.dtd"
   xmlns:xlink="http://www.w3.org/1999/xlink"
   xmlns="http://www.w3.org/2000/svg"
   xmlns:svg="http://www.w3.org/2000/svg">
  <defs
     id="defs3">
    <linearGradient
       id="swatch3"
       inkscape:swatch="solid">
      <stop
         style="stop-color:#212121;stop-opacity:1;"
         offset="0"
         id="stop3" />
    </linearGradient>
    <linearGradient
       inkscape:collect="always"
       xlink:href="#swatch3"
       id="linearGradient3"
       x1="2"
       y1="7.5"
       x2="14"
       y2="7.5"
       gradientUnits="userSpaceOnUse" />
  </defs>
  <sodipodi:namedview
     id="namedview3"
     pagecolor="#ffffff"
     bordercolor="#666666"
     borderopacity="1.0"
     inkscape:showpageshadow="2"
     inkscape:pageopacity="0.0"
     inkscape:pagecheckerboard="0"
     inkscape:deskcolor="#d1d1d1"
     inkscape:zoom="17.804549"
     inkscape:cx="17.944852"
     inkscape:cy="15.698235"
     inkscape:window-width="1920"
     inkscape:window-height="1011"
     inkscape:window-x="0"
     inkscape:window-y="0"
     inkscape:window-maximized="1"
     inkscape:current-layer="svg3" />
  <g
     color="#bebebe"
     fill="#474747"
     id="g3"
     style="fill:url(#linearGradient3)">
    <path
       d="M3 7h10c.554 0 1 .446 1 1v3c0 .554-.446 1-1 1H3c-.554 0-1-.446-1-1V8c0-.554.446-1 1-1z"
       style="marker:none;fill:url(#linearGradient3)"
       overflow="visible"
       id="path1" />
    <path
       d="M2 10h12v4H2z"
       style="marker:none;fill:url(#linearGradient3)"
       overflow="visible"
       id="path2" />
    <path
       d="M7 1C5.355 1 4 2.355 4 4v6c0 1.645 1.355 3 3 3h2c1.645 0 3-1.355 3-3V4c0-1.645-1.355-3-3-3zm0 2h2c.571 0 1 .429 1 1v6c0 .571-.429 1-1 1H7c-.571 0-1-.429-1-1V4c0-.571.429-1 1-1z"
       style="line-height:normal;font-variant-ligatures:normal;font-variant-position:normal;font-variant-caps:normal;font-variant-numeric:normal;font-variant-alternates:normal;font-feature-settings:normal;text-indent:0;text-align:start;text-decoration-line:none;text-decoration-style:solid;text-decoration-color:#000;text-transform:none;text-orientation:mixed;shape-padding:0;isolation:auto;mix-blend-mode:normal;marker:none;fill:url(#linearGradient3)"
       font-weight="400"
       font-family="sans-serif"
       overflow="visible"
       id="path3" />
  </g>
</svg>
