<?xml version="1.0" encoding="UTF-8" standalone="no"?>
<svg
   viewBox="0 0 15.999999 16"
   id="svg7384"
   height="16"
   width="16"
   version="1.1"
   inkscape:version="1.4.2 (ebf0e940d0, 2025-05-08)"
   sodipodi:docname="gimp-center-symbolic.svg"
   xmlns:inkscape="http://www.inkscape.org/namespaces/inkscape"
   xmlns:sodipodi="http://sodipodi.sourceforge.net/DTD/sodipodi-0.dtd"
   xmlns:xlink="http://www.w3.org/1999/xlink"
   xmlns="http://www.w3.org/2000/svg"
   xmlns:svg="http://www.w3.org/2000/svg"
   xmlns:rdf="http://www.w3.org/1999/02/22-rdf-syntax-ns#"
   xmlns:cc="http://creativecommons.org/ns#"
   xmlns:dc="http://purl.org/dc/elements/1.1/">
  <sodipodi:namedview
     pagecolor="#ffffff"
     bordercolor="#666666"
     borderopacity="1"
     objecttolerance="10"
     gridtolerance="10"
     guidetolerance="10"
     inkscape:pageopacity="0"
     inkscape:pageshadow="2"
     inkscape:window-width="1920"
     inkscape:window-height="1008"
     id="namedview1515"
     showgrid="false"
     inkscape:zoom="8"
     inkscape:cx="-2.75"
     inkscape:cy="25.125"
     inkscape:window-x="0"
     inkscape:window-y="0"
     inkscape:window-maximized="1"
     inkscape:current-layer="svg7384"
     inkscape:showpageshadow="2"
     inkscape:pagecheckerboard="0"
     inkscape:deskcolor="#d1d1d1" />
  <metadata
     id="metadata90">
    <rdf:RDF>
      <cc:Work
         rdf:about="">
        <dc:format>image/svg+xml</dc:format>
        <dc:type
           rdf:resource="http://purl.org/dc/dcmitype/StillImage" />
        <dc:contributor>
          <cc:Agent>
            <dc:title>Barbara Muraus, Jakub Steiner, Klaus Staedtler</dc:title>
          </cc:Agent>
        </dc:contributor>
        <dc:description>Images originally created as the &quot;Art Libre&quot; icon set. Extended and adopted for GIMP</dc:description>
      </cc:Work>
    </rdf:RDF>
  </metadata>
  <defs
     id="defs7386">
    <linearGradient
       id="linearGradient8074"
       inkscape:swatch="solid">
      <stop
         id="stop8072"
         offset="0"
         style="stop-color:#be00be;stop-opacity:1;" />
    </linearGradient>
    <linearGradient
       id="linearGradient7561"
       inkscape:swatch="solid">
      <stop
         id="stop7558"
         offset="0"
         style="stop-color:#a5a5a5;stop-opacity:1;" />
    </linearGradient>
    <linearGradient
       id="linearGradient7548"
       inkscape:swatch="solid">
      <stop
         id="stop7546"
         offset="0"
         style="stop-color:#ebebeb;stop-opacity:1;" />
    </linearGradient>
    <linearGradient
       id="linearGradient7542"
       inkscape:swatch="solid">
      <stop
         id="stop7538"
         offset="0"
         style="stop-color:#c9c9c9;stop-opacity:1;" />
    </linearGradient>
    <linearGradient
       gradientTransform="matrix(0,-735328.32,170712.69,0,2464326300,577972450)"
       id="linearGradient19282"
       inkscape:swatch="solid">
      <stop
         id="stop19284"
         offset="0"
         style="stop-color:#b4b4b4;stop-opacity:1;" />
    </linearGradient>
    <linearGradient
       gradientTransform="matrix(0.34682586,0,0,0.30620888,-154.35288,761.03786)"
       id="linearGradient19282-4"
       inkscape:swatch="solid">
      <stop
         id="stop19284-0"
         offset="0"
         style="stop-color:#bebebe;stop-opacity:1;" />
    </linearGradient>
    <linearGradient
       gradientTransform="translate(399.67546,153.30453)"
       gradientUnits="userSpaceOnUse"
       y2="152.56641"
       x2="392.04297"
       y1="152.56641"
       x1="386.04297"
       id="linearGradient10202"
       xlink:href="#linearGradient19282-4" />
    <linearGradient
       gradientTransform="translate(399.67546,153.30453)"
       gradientUnits="userSpaceOnUse"
       y2="162.56152"
       x2="392.03906"
       y1="162.56152"
       x1="386.03906"
       id="linearGradient10214"
       xlink:href="#linearGradient19282-4" />
    <linearGradient
       gradientTransform="translate(399.67546,153.30453)"
       gradientUnits="userSpaceOnUse"
       y2="157.57031"
       x2="397.04102"
       y1="157.57031"
       x1="391.04102"
       id="linearGradient10220"
       xlink:href="#linearGradient19282-4" />
    <linearGradient
       gradientTransform="translate(399.67546,153.30453)"
       y2="157.57031"
       x2="387.04102"
       y1="157.57031"
       x1="381.04102"
       gradientUnits="userSpaceOnUse"
       id="linearGradient10224"
       xlink:href="#linearGradient19282-4" />
  </defs>
  <g
     transform="translate(58.135694,13.726708)"
     style="display:inline"
     id="stock">
    <g
       transform="matrix(1,0,0,0.99987502,-58.134884,-13.725353)"
       id="gimp-center">
      <g
         transform="translate(0,-1036.36)"
         id="g4">
        <g
           id="g14"
           style="fill:#bebebe">
          <g
             transform="translate(4.614,-3)"
             id="g8"
             style="fill:#bebebe">
            <path
               id="path10"
               transform="matrix(1,0,0,1.000125,-385.65583,889.78331)"
               d="m 384.04102,154.57422 v 1.99219 h -3 v 2 c 1,0.01 2,0.032 3,0 v 2 l 3,-3.01953 z"
               style="fill:url(#linearGradient10224);fill-opacity:1;stroke-width:0.999938"
               inkscape:connector-curvature="0" />
          </g>
          <g
             transform="translate(-1.386,-3)"
             id="g16">
            <path
               id="path18"
               transform="matrix(1,0,0,1.000125,-379.65583,889.78331)"
               d="m 394.04102,154.57422 -3,2.97266 3,3.01953 v -2 c 1,0.01 2,0.032 3,0 v -2 h -3 z"
               style="fill:url(#linearGradient10220);fill-opacity:1;stroke-width:0.999938"
               inkscape:connector-curvature="0" />
          </g>
          <g
             transform="translate(-0.386,-3.502)"
             id="g22">
            <path
               id="path24"
               transform="matrix(1,0,0,1.000125,-380.65583,890.28531)"
               d="m 388.05078,149.55664 c -0.01,0.99988 -0.032,1.99817 0,2.99805 h 2 v -2.99805 z m -2.00781,3.00977 3.02148,3.00976 2.97852,-3.00976 z"
               style="fill:url(#linearGradient10202);fill-opacity:1;stroke-width:0.999938"
               inkscape:connector-curvature="0" />
          </g>
          <g
             transform="translate(-0.497,-3)"
             id="g28">
            <path
               id="path30"
               transform="matrix(1,0,0,1.000125,-380.54483,889.78331)"
               d="m 389.01953,159.56641 -2.98047,2.99609 h 2.00196 c -0.01,0.99792 -0.0319,1.99622 0,2.99414 h 2 v -2.99414 h 1.99804 z"
               style="fill:url(#linearGradient10214);fill-opacity:1;stroke-width:0.999938"
               inkscape:connector-curvature="0" />
          </g>
          <path
             style="fill:#000000;stroke-width:0.0078125"
             d="M 3,10.005448 V 9.0070225 l -0.2597656,0.00625 c -0.3353292,0.00807 -1.620183,0.00762 -2.25000003,-7.913e-4 L 0,9.0059371 V 8.010781 7.015625 h 1.4999702 1.4999702 l 0.00198,-0.9941406 0.00198,-0.9941407 1.3242188,1.3116565 c 0.7283203,0.7214111 1.4012357,1.388184 1.4953675,1.4817176 L 5.9946412,7.9907789 4.7305641,9.2629676 C 4.0353217,9.9626713 3.3615274,10.640618 3.2332435,10.769515 L 3,11.003874 Z"
             id="path7"
             transform="matrix(1,0,0,1.000125,-8.1e-4,1036.3586)" />
          <path
             style="fill:#000000;stroke-width:0.0078125"
             d="M 11.500965,9.4950242 10.005836,7.9903025 10.17284,7.824368 C 10.26469,7.733104 10.9375,7.0664383 11.667969,6.3428886 l 1.328125,-1.3155449 0.002,0.9941407 0.002,0.9941406 H 14.50003 16 v 0.9952081 0.9952082 l -0.208984,0.00614 c -0.281414,0.00827 -1.453485,0.00881 -2.191377,10e-4 l -0.59958,-0.00634 -0.002,0.9964517 -0.002,0.996451 z"
             id="path8"
             transform="matrix(1,0,0,1.000125,-8.1e-4,1036.3586)" />
          <path
             style="fill:#000000;stroke-width:0.0078125"
             d="m 6.9962762,15.708984 c -0.00828,-0.434521 -0.0088,-1.163648 -0.00139,-1.980468 L 7.0014907,13 H 6.0076011 5.0137116 l 0.430644,-0.435547 c 0.2368541,-0.239551 0.9043745,-0.910998 1.4833785,-1.492106 l 1.0527346,-1.05656 1.5007707,1.490154 1.5007706,1.490153 -0.991005,0.002 L 9,13.00006 V 14.50003 16 H 8.000912 7.0018241 Z"
             id="path9"
             transform="matrix(1,0,0,1.000125,-8.1e-4,1036.3586)" />
        </g>
      </g>
    </g>
  </g>
  <path
     style="display:inline;fill:#000000;stroke-width:0.0339025"
     d="M 7.0178265,1.4917119 V 0 H 8.0010003 8.984174 V 1.4917119 2.9834238 H 8.0010003 7.0178265 Z"
     id="path1" />
  <path
     style="display:inline;fill:#000000;stroke-width:0.0339025"
     d="M 6.5262396,4.5090383 5.0348167,3.0173264 H 7.9962798 10.957743 L 9.4915598,4.5090383 C 8.685159,5.3294798 8.0236409,6.0007502 8.0215196,6.0007502 c -0.00212,0 -0.6749974,-0.6712704 -1.49528,-1.4917119 z"
     id="path2" />
  <path
     style="display:none;fill:#000000;stroke-width:0.0339025"
     d="M 3.0189474,9.9798639 3.0173264,8.992255 2.212141,9.0097769 c -0.442852,0.00964 -1.1217504,0.00614 -1.50866322,-0.00777 L 0,8.9767148 V 7.9972707 7.0178265 h 1.5081433 1.5081432 l 0.009,-0.9654896 0.009,-0.9654896 1.4712731,1.4486008 1.4712735,1.4486009 -1.4781279,1.4917119 -1.478128,1.4917121 z"
     id="path3" />
  <path
     style="display:none;fill:#000000;stroke-width:0.0339025"
     d="m 11.49452,9.4726598 -1.473203,-1.4855725 1.473203,-1.4520709 1.473203,-1.4520709 0.009,0.9674405 0.009,0.9674405 h 1.491192 1.491192 v 0.9799113 0.9799113 l -0.364452,0.025184 c -0.200449,0.013852 -0.87149,0.015677 -1.491201,0.00406 l -1.126749,-0.021128 -0.009,0.9862352 -0.009,0.9862347 z"
     id="path4" />
  <path
     style="display:none;fill:#000000;stroke-width:0.0339025"
     d="m 7.0108171,15.484987 c -0.00386,-0.265711 -0.00164,-0.936982 0.00493,-1.491712 l 0.011938,-1.008601 H 6.031252 5.03482 l 1.4744692,-1.474761 1.4744692,-1.474762 1.4666007,1.466286 1.4666009,1.466286 -0.966393,0.009 -0.966393,0.009 v 1.491192 1.491192 H 8.0010003 7.0178265 Z"
     id="path5" />
  <path
     style="display:none;fill:#000000;stroke-width:0.0339025"
     d="M 7.0178265,1.4917119 V 0 H 8.0010003 8.984174 V 1.4917119 2.9834238 H 8.0010003 7.0178265 Z"
     id="path6" />
</svg>
