<?xml version="1.0" encoding="UTF-8" standalone="no"?>
<svg
   viewBox="0 0 15.999999 16"
   id="svg7384"
   height="16"
   width="16"
   version="1.1"
   inkscape:version="1.3.2 (091e20ef0f, 2023-11-25)"
   sodipodi:docname="gimp-paste-into-symbolic.svg"
   xmlns:inkscape="http://www.inkscape.org/namespaces/inkscape"
   xmlns:sodipodi="http://sodipodi.sourceforge.net/DTD/sodipodi-0.dtd"
   xmlns="http://www.w3.org/2000/svg"
   xmlns:svg="http://www.w3.org/2000/svg"
   xmlns:rdf="http://www.w3.org/1999/02/22-rdf-syntax-ns#"
   xmlns:cc="http://creativecommons.org/ns#"
   xmlns:dc="http://purl.org/dc/elements/1.1/">
  <sodipodi:namedview
     pagecolor="#ffffff"
     bordercolor="#666666"
     borderopacity="1"
     objecttolerance="10"
     gridtolerance="10"
     guidetolerance="10"
     inkscape:pageopacity="0"
     inkscape:pageshadow="2"
     inkscape:window-width="1920"
     inkscape:window-height="1011"
     id="namedview1537"
     showgrid="false"
     inkscape:zoom="14.75"
     inkscape:cx="7.220339"
     inkscape:cy="3.559322"
     inkscape:window-x="0"
     inkscape:window-y="0"
     inkscape:window-maximized="1"
     inkscape:current-layer="svg7384"
     inkscape:showpageshadow="2"
     inkscape:pagecheckerboard="0"
     inkscape:deskcolor="#d1d1d1" />
  <metadata
     id="metadata90">
    <rdf:RDF>
      <cc:Work
         rdf:about="">
        <dc:format>image/svg+xml</dc:format>
        <dc:type
           rdf:resource="http://purl.org/dc/dcmitype/StillImage" />
        <dc:contributor>
          <cc:Agent>
            <dc:title>Barbara Muraus, Jakub Steiner, Klaus Staedtler</dc:title>
          </cc:Agent>
        </dc:contributor>
        <dc:description>Images originally created as the &quot;Art Libre&quot; icon set. Extended and adopted for GIMP</dc:description>
      </cc:Work>
    </rdf:RDF>
  </metadata>
  <defs
     id="defs7386">
    <linearGradient
       gradientTransform="matrix(0.34682586,0,0,0.30620888,-53.351872,142.03851)"
       id="linearGradient19282-4"
       inkscape:swatch="solid">
      <stop
         id="stop19284-0"
         offset="0"
         style="stop-color:#bebebe;stop-opacity:1;" />
    </linearGradient>
  </defs>
  <g
     transform="translate(-25.996201,-50.99594)"
     style="display:inline;fill:#000000;fill-opacity:1"
     id="stock">
    <g
       id="gimp-paste-into"
       style="display:inline;fill:#000000;fill-opacity:1"
       transform="translate(-75.003998,-568.00406)">
      <path
         id="path6897"
         d="m 105.0002,624 0,6 6,0 2,-2 0,-4 z"
         style="fill:#000000;fill-opacity:1;stroke:none"
         inkscape:connector-curvature="0" />
      <rect
         ry="1"
         rx="0.99999648"
         y="621"
         x="107.0002"
         height="2"
         width="3.9999981"
         id="rect6903"
         style="fill:#000000;fill-opacity:1;stroke:none" />
      <path
         style="fill:#000000;fill-opacity:1;stroke:none"
         d="m 103.53145,622 c -0.2938,0 -0.53125,0.23745 -0.53125,0.53125 l 0,8.9375 c 0,0.2938 0.23745,0.53125 0.53125,0.53125 l 10.9375,0 c 0.2938,0 0.53125,-0.23745 0.53125,-0.53125 l 0,-8.9375 c 0,-0.2938 -0.23825,-0.50955 -0.53125,-0.53125 l -2.46875,0 0,1 1.46875,0 c 0.2938,0 0.53125,0.23745 0.53125,0.53125 l 0,6.9375 c 0,0.2938 -0.23745,0.53125 -0.53125,0.53125 l -8.9375,0 c -0.2938,0 -0.53125,-0.23745 -0.53125,-0.53125 l 0,-6.9375 c 0,-0.2938 0.23745,-0.53125 0.53125,-0.53125 l 1.46875,0 0,-1 z"
         id="rect6907"
         inkscape:connector-curvature="0" />
      <rect
         style="fill:#000000;fill-opacity:1;stroke:none"
         id="rect6913"
         width="1"
         height="1"
         x="-140"
         y="402"
         transform="translate(241.0002,217)"
         rx="0.53033006"
         ry="0.53033006" />
      <rect
         style="fill:#000000;fill-opacity:1;stroke:none"
         id="rect6915"
         width="1"
         height="1"
         x="-138"
         y="402"
         transform="translate(241.0002,217)"
         rx="0.53033006"
         ry="0.53033006" />
      <rect
         ry="0.53033006"
         rx="0.53033006"
         y="619"
         x="105.0002"
         height="1"
         width="1"
         id="rect6917"
         style="fill:#000000;fill-opacity:1;stroke:none" />
      <rect
         ry="0.53033006"
         rx="0.53033006"
         y="619"
         x="107.0002"
         height="1"
         width="1"
         id="rect6919"
         style="fill:#000000;fill-opacity:1;stroke:none" />
      <rect
         ry="0.53033006"
         rx="0.53033006"
         y="619"
         x="109.0002"
         height="1"
         width="1"
         id="rect6921"
         style="fill:#000000;fill-opacity:1;stroke:none" />
      <rect
         style="fill:#000000;fill-opacity:1;stroke:none"
         id="rect6923"
         width="1"
         height="1"
         x="111.0002"
         y="619"
         rx="0.53033006"
         ry="0.53033006" />
      <rect
         style="fill:#000000;fill-opacity:1;stroke:none"
         id="rect6925"
         width="1"
         height="1"
         x="113.0002"
         y="619"
         rx="0.53033006"
         ry="0.53033006" />
      <rect
         style="fill:#000000;fill-opacity:1;stroke:none"
         id="rect6927"
         width="1"
         height="1"
         x="115.0002"
         y="619"
         rx="0.53033006"
         ry="0.53033006" />
      <rect
         ry="0.53033006"
         rx="0.53033006"
         y="621"
         x="116.0002"
         height="1"
         width="1"
         id="rect6929"
         style="fill:#000000;fill-opacity:1;stroke:none" />
      <rect
         ry="0.53033006"
         rx="0.53033006"
         y="-102.0002"
         x="633"
         height="1"
         width="1"
         id="rect6931"
         style="fill:#000000;fill-opacity:1;stroke:none"
         transform="matrix(0,1,-1,0,0,0)" />
      <rect
         ry="0.53033006"
         rx="0.53033006"
         y="-102.0002"
         x="631"
         height="1"
         width="1"
         id="rect6933"
         style="fill:#000000;fill-opacity:1;stroke:none"
         transform="matrix(0,1,-1,0,0,0)" />
      <rect
         style="fill:#000000;fill-opacity:1;stroke:none"
         id="rect6935"
         width="1"
         height="1"
         x="629"
         y="-102.0002"
         rx="0.53033006"
         ry="0.53033006"
         transform="matrix(0,1,-1,0,0,0)" />
      <rect
         style="fill:#000000;fill-opacity:1;stroke:none"
         id="rect6937"
         width="1"
         height="1"
         x="627"
         y="-102.0002"
         rx="0.53033006"
         ry="0.53033006"
         transform="matrix(0,1,-1,0,0,0)" />
      <rect
         style="fill:#000000;fill-opacity:1;stroke:none"
         id="rect6939"
         width="1"
         height="1"
         x="625"
         y="-102.0002"
         rx="0.53033006"
         ry="0.53033006"
         transform="matrix(0,1,-1,0,0,0)" />
      <rect
         ry="0.53033006"
         rx="0.53033006"
         y="-102.0002"
         x="623"
         height="1"
         width="1"
         id="rect6941"
         style="fill:#000000;fill-opacity:1;stroke:none"
         transform="matrix(0,1,-1,0,0,0)" />
      <rect
         ry="0.53033006"
         rx="0.53033006"
         y="-102.0002"
         x="621"
         height="1"
         width="1"
         id="rect6943"
         style="fill:#000000;fill-opacity:1;stroke:none"
         transform="matrix(0,1,-1,0,0,0)" />
      <rect
         ry="0.53033006"
         rx="0.53033006"
         y="633"
         x="103.0002"
         height="1"
         width="1"
         id="rect6945"
         style="fill:#000000;fill-opacity:1;stroke:none" />
      <rect
         style="fill:#000000;fill-opacity:1;stroke:none"
         id="rect6947"
         width="1"
         height="1"
         x="105.0002"
         y="633"
         rx="0.53033006"
         ry="0.53033006" />
      <rect
         style="fill:#000000;fill-opacity:1;stroke:none"
         id="rect6949"
         width="1"
         height="1"
         x="107.0002"
         y="633"
         rx="0.53033006"
         ry="0.53033006" />
      <rect
         style="fill:#000000;fill-opacity:1;stroke:none"
         id="rect6951"
         width="1"
         height="1"
         x="109.0002"
         y="633"
         rx="0.53033006"
         ry="0.53033006" />
      <rect
         ry="0.53033006"
         rx="0.53033006"
         y="633"
         x="111.0002"
         height="1"
         width="1"
         id="rect6953"
         style="fill:#000000;fill-opacity:1;stroke:none" />
      <rect
         style="fill:#000000;fill-opacity:1;stroke:none"
         id="rect6955"
         width="1"
         height="1"
         x="113.0002"
         y="633"
         rx="0.53033006"
         ry="0.53033006" />
      <rect
         ry="0.53033006"
         rx="0.53033006"
         y="633"
         x="115.0002"
         height="1"
         width="1"
         id="rect6957"
         style="fill:#000000;fill-opacity:1;stroke:none" />
      <rect
         transform="matrix(0,1,-1,0,0,0)"
         ry="0.53033006"
         rx="0.53033006"
         y="-117.0002"
         x="631"
         height="1"
         width="1"
         id="rect6961"
         style="fill:#000000;fill-opacity:1;stroke:none" />
      <rect
         transform="matrix(0,1,-1,0,0,0)"
         ry="0.53033006"
         rx="0.53033006"
         y="-117.0002"
         x="629"
         height="1"
         width="1"
         id="rect6963"
         style="fill:#000000;fill-opacity:1;stroke:none" />
      <rect
         transform="matrix(0,1,-1,0,0,0)"
         ry="0.53033006"
         rx="0.53033006"
         y="-117.0002"
         x="627"
         height="1"
         width="1"
         id="rect6965"
         style="fill:#000000;fill-opacity:1;stroke:none" />
      <rect
         transform="matrix(0,1,-1,0,0,0)"
         style="fill:#000000;fill-opacity:1;stroke:none"
         id="rect6967"
         width="1"
         height="1"
         x="625"
         y="-117.0002"
         rx="0.53033006"
         ry="0.53033006" />
      <rect
         transform="matrix(0,1,-1,0,0,0)"
         style="fill:#000000;fill-opacity:1;stroke:none"
         id="rect6969"
         width="1"
         height="1"
         x="623"
         y="-117.0002"
         rx="0.53033006"
         ry="0.53033006" />
    </g>
  </g>
</svg>
