<?xml version="1.0" encoding="UTF-8" standalone="no"?>
<svg
   width="16"
   height="16"
   viewBox="0 0 16 16"
   id="svg30571"
   version="1.1"
   inkscape:version="1.4.2 (ebf0e940d0, 2025-05-08)"
   sodipodi:docname="go-bottom-symbolic.svg"
   xmlns:inkscape="http://www.inkscape.org/namespaces/inkscape"
   xmlns:sodipodi="http://sodipodi.sourceforge.net/DTD/sodipodi-0.dtd"
   xmlns="http://www.w3.org/2000/svg"
   xmlns:svg="http://www.w3.org/2000/svg"
   xmlns:rdf="http://www.w3.org/1999/02/22-rdf-syntax-ns#"
   xmlns:cc="http://creativecommons.org/ns#"
   xmlns:dc="http://purl.org/dc/elements/1.1/">
  <defs
     id="defs30573" />
  <sodipodi:namedview
     id="base"
     pagecolor="#ffffff"
     bordercolor="#666666"
     borderopacity="1"
     inkscape:pageopacity="0"
     inkscape:pageshadow="2"
     inkscape:zoom="15.577558"
     inkscape:cx="-0.38516949"
     inkscape:cy="12.967373"
     inkscape:document-units="px"
     inkscape:current-layer="layer1"
     showgrid="true"
     units="px"
     inkscape:snap-page="true"
     inkscape:snap-bbox="true"
     inkscape:bbox-paths="true"
     inkscape:bbox-nodes="true"
     inkscape:snap-bbox-edge-midpoints="true"
     inkscape:snap-bbox-midpoints="true"
     inkscape:object-paths="true"
     inkscape:snap-intersection-paths="true"
     inkscape:object-nodes="true"
     inkscape:snap-smooth-nodes="true"
     inkscape:snap-midpoints="true"
     inkscape:snap-object-midpoints="true"
     inkscape:snap-center="true"
     inkscape:snap-text-baseline="true"
     showborder="false"
     inkscape:window-width="1920"
     inkscape:window-height="1008"
     inkscape:window-x="0"
     inkscape:window-y="0"
     inkscape:window-maximized="1"
     inkscape:snap-global="false"
     showguides="false"
     inkscape:showpageshadow="2"
     inkscape:pagecheckerboard="0"
     inkscape:deskcolor="#d1d1d1">
    <inkscape:grid
       type="xygrid"
       id="grid20"
       originx="0"
       originy="0"
       spacingy="1"
       spacingx="1"
       units="px" />
  </sodipodi:namedview>
  <metadata
     id="metadata30576">
    <rdf:RDF>
      <cc:Work
         rdf:about="">
        <dc:format>
          image/svg+xml
        </dc:format>
        <dc:type
           rdf:resource="http://purl.org/dc/dcmitype/StillImage" />
        <dc:creator>
          <cc:Agent>
            <dc:title>Klaus Staedtler       </dc:title>
          </cc:Agent>
        </dc:creator>
        <dc:title />
      </cc:Work>
    </rdf:RDF>
  </metadata>
  <g
     inkscape:label="Layer 1"
     inkscape:groupmode="layer"
     id="layer1"
     transform="translate(0,-1036.3622)">
    <g
       id="g30">
      <path
         style="color:#000000;font-style:normal;font-variant:normal;font-weight:normal;font-stretch:normal;font-size:medium;line-height:normal;font-family:Sans;-inkscape-font-specification:Sans;text-indent:0;text-align:start;text-decoration:none;text-decoration-line:none;letter-spacing:normal;word-spacing:normal;text-transform:none;writing-mode:lr-tb;direction:ltr;baseline-shift:baseline;text-anchor:start;display:inline;overflow:visible;visibility:visible;fill:#bebebe;fill-opacity:1;stroke:none;stroke-width:2.07036519;marker:none;enable-background:accumulate"
         id="path8378"
         d="m 2.8176596,1038.3881 a 0.99538919,1.0767821 0 0 0 -0.4976448,1.8505 l 4.9764483,5.3834 0.7153644,0.7402 0.7153644,-0.7402 4.9764491,-5.3834 a 1.0116781,1.094403 0 1 0 -1.430729,-1.5477 l -4.2610845,4.6096 -4.2610838,-4.6096 a 0.99538919,1.0767821 0 0 0 -0.9330841,-0.3028 z"
         inkscape:connector-curvature="0" />
      <rect
         y="-13.999952"
         x="1048.3622"
         width="2"
         transform="rotate(90)"
         style="color:#bebebe;display:inline;overflow:visible;visibility:visible;fill:#bebebe;fill-opacity:1;fill-rule:nonzero;stroke:none;stroke-width:2;marker:none;enable-background:accumulate"
         ry="0"
         rx="0"
         id="rect8382"
         height="12" />
    </g>
    <path
       style="fill:#000000;stroke-width:0.0641949"
       d="M 7.728737,9.6699008 C 7.5912208,9.5123177 6.3087552,8.123164 4.8788135,6.5828929 3.4488718,5.0426217 2.228366,3.690113 2.1665784,3.577318 1.9238734,3.1342532 2.082269,2.4862508 2.5035692,2.1986758 c 0.2880088,-0.1965917 0.7421654,-0.1965917 1.018901,0 0.1118268,0.079441 1.1569248,1.1771743 2.32244,2.4394068 1.1655152,1.2622325 2.1429183,2.2949681 2.1720068,2.2949681 0.029089,0 1.0163583,-1.0440043 2.193933,-2.3200096 C 11.388425,3.3370358 12.439824,2.2394107 12.547293,2.1738743 13.271416,1.7322904 14.144796,2.4917837 13.9235,3.3706281 13.85718,3.6339909 13.553049,3.9858869 11.105201,6.6314947 9.5960233,8.2625994 8.2751839,9.6779765 8.1700035,9.7767776 l -0.191237,0.1796373 z"
       id="path1"
       transform="translate(0,1036.3622)" />
    <path
       style="fill:#000000;stroke-width:0.0641949"
       d="m 2.0542373,12.99947 v -0.995021 h 5.970127 5.9701267 v 0.995021 0.995021 H 8.0243643 2.0542373 Z"
       id="path2"
       transform="translate(0,1036.3622)" />
  </g>
</svg>
