<?xml version="1.0" encoding="UTF-8" standalone="no"?>
<svg
   width="16"
   height="16"
   viewBox="0 0 16 16"
   id="svg30571"
   version="1.1"
   inkscape:version="1.4.2 (ebf0e940d0, 2025-05-08)"
   sodipodi:docname="go-next-symbolic.svg"
   xmlns:inkscape="http://www.inkscape.org/namespaces/inkscape"
   xmlns:sodipodi="http://sodipodi.sourceforge.net/DTD/sodipodi-0.dtd"
   xmlns="http://www.w3.org/2000/svg"
   xmlns:svg="http://www.w3.org/2000/svg"
   xmlns:rdf="http://www.w3.org/1999/02/22-rdf-syntax-ns#"
   xmlns:cc="http://creativecommons.org/ns#"
   xmlns:dc="http://purl.org/dc/elements/1.1/">
  <defs
     id="defs30573" />
  <sodipodi:namedview
     id="base"
     pagecolor="#ffffff"
     bordercolor="#666666"
     borderopacity="1"
     inkscape:pageopacity="0"
     inkscape:pageshadow="2"
     inkscape:zoom="16"
     inkscape:cx="-3.625"
     inkscape:cy="0"
     inkscape:document-units="px"
     inkscape:current-layer="layer1"
     showgrid="true"
     units="px"
     inkscape:snap-page="true"
     inkscape:snap-bbox="true"
     inkscape:bbox-paths="true"
     inkscape:bbox-nodes="true"
     inkscape:snap-bbox-edge-midpoints="true"
     inkscape:snap-bbox-midpoints="true"
     inkscape:object-paths="true"
     inkscape:snap-intersection-paths="true"
     inkscape:object-nodes="true"
     inkscape:snap-smooth-nodes="true"
     inkscape:snap-midpoints="true"
     inkscape:snap-object-midpoints="true"
     inkscape:snap-center="true"
     inkscape:snap-text-baseline="true"
     showborder="false"
     inkscape:window-width="1920"
     inkscape:window-height="1008"
     inkscape:window-x="0"
     inkscape:window-y="0"
     inkscape:window-maximized="1"
     inkscape:snap-global="false"
     showguides="false"
     inkscape:showpageshadow="2"
     inkscape:pagecheckerboard="0"
     inkscape:deskcolor="#d1d1d1">
    <inkscape:grid
       type="xygrid"
       id="grid4240"
       originx="0"
       originy="0"
       spacingy="1"
       spacingx="1"
       units="px" />
  </sodipodi:namedview>
  <metadata
     id="metadata30576">
    <rdf:RDF>
      <cc:Work
         rdf:about="">
        <dc:format>
          image/svg+xml
        </dc:format>
        <dc:type
           rdf:resource="http://purl.org/dc/dcmitype/StillImage" />
        <dc:creator>
          <cc:Agent>
            <dc:title>Klaus Staedtler       </dc:title>
          </cc:Agent>
        </dc:creator>
        <dc:title />
      </cc:Work>
    </rdf:RDF>
  </metadata>
  <g
     inkscape:label="Layer 1"
     inkscape:groupmode="layer"
     id="layer1"
     transform="translate(0,-1036.3622)">
    <path
       style="color:#000000;font-style:normal;font-variant:normal;font-weight:normal;font-stretch:normal;font-size:medium;line-height:normal;font-family:Sans;-inkscape-font-specification:Sans;text-indent:0;text-align:start;text-decoration:none;text-decoration-line:none;letter-spacing:normal;word-spacing:normal;text-transform:none;writing-mode:lr-tb;direction:ltr;baseline-shift:baseline;text-anchor:start;display:inline;overflow:visible;visibility:visible;fill:#bebebe;fill-opacity:1;stroke:none;stroke-width:1.98300517;marker:none;enable-background:accumulate"
       d="m 7.6830953,1038.3626 a 0.98645275,0.9967777 0 0 0 -0.2176913,0.023 0.98645275,0.9967777 0 0 0 -0.4931771,1.713 l 3.2326211,3.2665 H 2 v 1.9934 h 8.212554 l -3.2403271,3.2742 a 1.0026217,1.013116 0 1 0 1.417884,1.4328 l 4.9317711,-4.9836 0.678118,-0.7164 -0.678118,-0.7163 -4.9317711,-4.9833 a 0.98645275,0.9967777 0 0 0 -0.7070156,-0.3037 z"
       id="path8334"
       inkscape:connector-curvature="0" />
    <path
       style="fill:#000000;stroke-width:0.0625"
       d="M 7.4299742,13.921518 C 7.1369248,13.850153 6.8175462,13.517502 6.7475747,13.210761 6.6272971,12.683487 6.6766177,12.615602 8.5364506,10.748544 9.4789031,9.8024313 10.25,9.0079 10.25,8.9829194 10.25,8.9579388 8.39375,8.9375 6.125,8.9375 H 2 V 8 7.0625 H 6.0833333 C 8.3291669,7.0625 10.18626,7.042907 10.210207,7.018959 10.234155,6.9950117 9.481145,6.2004804 8.5368519,5.2533341 7.5925589,4.3061879 6.7901531,3.4520753 6.7537278,3.3553063 6.5957929,2.9357294 6.7491979,2.4596219 7.1249684,2.203125 7.3877182,2.0237748 7.8844655,2.0115675 8.1569913,2.1777636 8.3343613,2.2859305 13.886613,7.882697 13.923473,7.990478 13.945133,8.053814 8.34382,13.72884 8.1653975,13.824329 7.9442314,13.942693 7.6672427,13.979298 7.4299742,13.921518 Z"
       id="path1"
       transform="translate(0,1036.3622)" />
  </g>
</svg>
