<?xml version="1.0" encoding="UTF-8" standalone="no"?>
<svg
   width="16"
   height="16"
   viewBox="0 0 16 16"
   id="svg30571"
   version="1.1"
   inkscape:version="1.4.2 (ebf0e940d0, 2025-05-08)"
   sodipodi:docname="go-previous-symbolic.svg"
   xmlns:inkscape="http://www.inkscape.org/namespaces/inkscape"
   xmlns:sodipodi="http://sodipodi.sourceforge.net/DTD/sodipodi-0.dtd"
   xmlns="http://www.w3.org/2000/svg"
   xmlns:svg="http://www.w3.org/2000/svg"
   xmlns:rdf="http://www.w3.org/1999/02/22-rdf-syntax-ns#"
   xmlns:cc="http://creativecommons.org/ns#"
   xmlns:dc="http://purl.org/dc/elements/1.1/">
  <defs
     id="defs30573" />
  <sodipodi:namedview
     id="base"
     pagecolor="#ffffff"
     bordercolor="#666666"
     borderopacity="1"
     inkscape:pageopacity="0"
     inkscape:pageshadow="2"
     inkscape:zoom="16"
     inkscape:cx="-3.625"
     inkscape:cy="0"
     inkscape:document-units="px"
     inkscape:current-layer="layer1"
     showgrid="true"
     units="px"
     inkscape:snap-page="true"
     inkscape:snap-bbox="true"
     inkscape:bbox-paths="true"
     inkscape:bbox-nodes="true"
     inkscape:snap-bbox-edge-midpoints="true"
     inkscape:snap-bbox-midpoints="true"
     inkscape:object-paths="true"
     inkscape:snap-intersection-paths="true"
     inkscape:object-nodes="true"
     inkscape:snap-smooth-nodes="true"
     inkscape:snap-midpoints="true"
     inkscape:snap-object-midpoints="true"
     inkscape:snap-center="true"
     inkscape:snap-text-baseline="true"
     showborder="false"
     inkscape:window-width="1920"
     inkscape:window-height="1008"
     inkscape:window-x="0"
     inkscape:window-y="0"
     inkscape:window-maximized="1"
     inkscape:snap-global="false"
     showguides="false"
     inkscape:showpageshadow="2"
     inkscape:pagecheckerboard="0"
     inkscape:deskcolor="#d1d1d1">
    <inkscape:grid
       type="xygrid"
       id="grid4240"
       originx="0"
       originy="0"
       spacingy="1"
       spacingx="1"
       units="px" />
  </sodipodi:namedview>
  <metadata
     id="metadata30576">
    <rdf:RDF>
      <cc:Work
         rdf:about="">
        <dc:format>
          image/svg+xml
        </dc:format>
        <dc:type
           rdf:resource="http://purl.org/dc/dcmitype/StillImage" />
        <dc:creator>
          <cc:Agent>
            <dc:title>Klaus Staedtler       </dc:title>
          </cc:Agent>
        </dc:creator>
        <dc:title />
      </cc:Work>
    </rdf:RDF>
  </metadata>
  <g
     inkscape:label="Layer 1"
     inkscape:groupmode="layer"
     id="layer1"
     transform="translate(0,-1036.3622)">
    <path
       style="color:#000000;font-style:normal;font-variant:normal;font-weight:normal;font-stretch:normal;font-size:medium;line-height:normal;font-family:Sans;-inkscape-font-specification:Sans;text-indent:0;text-align:start;text-decoration:none;text-decoration-line:none;letter-spacing:normal;word-spacing:normal;text-transform:none;writing-mode:lr-tb;direction:ltr;baseline-shift:baseline;text-anchor:start;display:inline;overflow:visible;visibility:visible;fill:#bebebe;fill-opacity:1;stroke:none;stroke-width:1.98300517;marker:none;enable-background:accumulate"
       d="m 8.3169047,1038.3626 a 0.98645275,0.9967777 0 0 1 0.2176913,0.023 0.98645275,0.9967777 0 0 1 0.4931771,1.713 l -3.2326208,3.2665 H 14 v 1.9934 H 5.7874459 l 3.2403272,3.2742 a 1.0026217,1.013116 0 1 1 -1.417884,1.4328 L 2.6781185,1045.0819 2,1044.3655 l 0.6781185,-0.7163 4.9317706,-4.9833 a 0.98645275,0.9967777 0 0 1 0.7070156,-0.3037 z"
       id="path8334"
       inkscape:connector-curvature="0" />
    <path
       style="fill:#000000;stroke-width:0.0625"
       d="M 8.15625,13.937116 C 8.053125,13.91489 7.9088832,13.864535 7.8357127,13.825215 7.6582914,13.729873 2.054956,8.0532181 2.0767418,7.9908884 2.1142973,7.8834413 7.6686149,2.2841164 7.8433414,2.1775613 7.9594444,2.1067572 8.1510926,2.062878 8.3448669,2.0627336 9.0305637,2.0622228 9.4867669,2.7163969 9.2462725,3.3553063 9.2098469,3.4520753 8.4074413,4.3061879 7.463148,5.2533341 6.518855,6.2004804 5.765845,6.9950117 5.7897925,7.0189591 5.8137399,7.0429066 7.6708333,7.0625 9.9166669,7.0625 H 14 V 8 8.9375 H 9.875 c -2.26875,0 -4.125,0.020439 -4.125,0.045419 0,0.024981 0.7710972,0.8195119 1.7135493,1.765625 1.4802882,1.486039 1.7230932,1.756365 1.7836588,1.985831 0.1771694,0.671241 -0.4334643,1.344441 -1.0909581,1.202741 z"
       id="path1"
       transform="translate(0,1036.3622)" />
  </g>
</svg>
