<?xml version="1.0" encoding="UTF-8" standalone="no"?>
<!-- Created with Inkscape (http://www.inkscape.org/) -->

<svg
   id="svg7384"
   height="16"
   width="16"
   version="1.1"
   sodipodi:docname="media-seek-backward-symbolic.svg"
   viewBox="0 0 16 16"
   inkscape:version="1.4.2 (ebf0e940d0, 2025-05-08)"
   xmlns:inkscape="http://www.inkscape.org/namespaces/inkscape"
   xmlns:sodipodi="http://sodipodi.sourceforge.net/DTD/sodipodi-0.dtd"
   xmlns="http://www.w3.org/2000/svg"
   xmlns:svg="http://www.w3.org/2000/svg"
   xmlns:rdf="http://www.w3.org/1999/02/22-rdf-syntax-ns#"
   xmlns:cc="http://creativecommons.org/ns#"
   xmlns:dc="http://purl.org/dc/elements/1.1/">
  <defs
     id="defs11" />
  <sodipodi:namedview
     pagecolor="#ffffff"
     bordercolor="#666666"
     borderopacity="1"
     objecttolerance="10"
     gridtolerance="10"
     guidetolerance="10"
     inkscape:pageopacity="0"
     inkscape:pageshadow="2"
     inkscape:window-width="1920"
     inkscape:window-height="1008"
     id="namedview9"
     showgrid="false"
     inkscape:zoom="43.1875"
     inkscape:cx="6.1360347"
     inkscape:cy="7.8726483"
     inkscape:window-x="0"
     inkscape:window-y="0"
     inkscape:window-maximized="1"
     inkscape:current-layer="svg7384"
     inkscape:showpageshadow="2"
     inkscape:pagecheckerboard="0"
     inkscape:deskcolor="#d1d1d1" />
  <metadata
     id="metadata90">
    <rdf:RDF>
      <cc:Work
         rdf:about="">
        <dc:format>image/svg+xml</dc:format>
        <dc:type
           rdf:resource="http://purl.org/dc/dcmitype/StillImage" />
        <dc:title>Gnome Symbolic Icon Theme</dc:title>
      </cc:Work>
    </rdf:RDF>
  </metadata>
  <title
     id="title9167">Gnome Symbolic Icon Theme</title>
  <g
     id="g4251">
    <g
       transform="translate(-60,-606)"
       id="layer12">
      <g
         transform="translate(40,119)"
         id="g3940">
        <path
           inkscape:connector-curvature="0"
           d="m 34,491 c -0.17738,0.008 -0.35117,0.0592 -0.5,0.15625 l -5,3 c -0.2824,0.17971 -0.4375,0.51173 -0.4375,0.84375 0,0.33202 0.1551,0.66404 0.4375,0.84375 l 5,3 c 0.14883,0.097 0.32262,0.14825 0.5,0.15625 H 34.15625 35 v -8 h -0.84375 z"
           style="color:#000000;text-indent:0;text-transform:none;fill:#bebebe"
           id="path3807-1-1-4-7-2" />
        <path
           inkscape:connector-curvature="0"
           d="m 27,491 c -0.17738,0.008 -0.35117,0.0592 -0.5,0.15625 l -5,3 c -0.2824,0.17971 -0.4375,0.51173 -0.4375,0.84375 0,0.33202 0.1551,0.66404 0.4375,0.84375 l 5,3 c 0.14883,0.097 0.32262,0.14825 0.5,0.15625 H 27.15625 28 v -8 h -0.84375 z"
           style="color:#000000;text-indent:0;text-transform:none;fill:#bebebe"
           id="path3807-1-1-4-7-2-0" />
      </g>
    </g>
  </g>
  <path
     style="fill:#000000;stroke-width:0.0231548"
     d="m 6.8885673,11.978869 c -0.02547,-0.0055 -0.098408,-0.02616 -0.1620839,-0.04595 C 6.577835,11.886724 1.5055429,8.8447347 1.3721664,8.7217924 1.1633503,8.5293126 1.0386226,8.1475661 1.0866159,7.8478259 1.1181306,7.6510023 1.2473267,7.3932807 1.3721664,7.2782076 1.4926606,7.1671398 6.5627214,4.1211275 6.7264834,4.0614185 6.8238988,4.0259001 6.9331337,4.01786 7.4153401,4.010716 l 0.5730825,-0.00849 v 3.9959928 3.9959922 l -0.5267728,-0.0027 c -0.2897251,-0.0015 -0.5476122,-0.0072 -0.5730825,-0.01266 z"
     id="path1" />
  <path
     style="fill:#000000;stroke-width:0.0231548"
     d="m 13.805619,11.958312 c -0.06711,-0.01807 -0.15568,-0.04997 -0.196817,-0.0709 C 13.476663,11.820199 8.5122802,8.8393019 8.432625,8.7793443 8.1412979,8.5600584 8.0059319,8.0743949 8.1269404,7.6826149 8.1781684,7.5167579 8.3160289,7.3084191 8.432625,7.2206557 8.585226,7.1057908 13.560659,4.1335153 13.696093,4.076311 13.83006,4.0197261 13.855489,4.0173553 14.408104,4.009928 l 0.573083,-0.0077 v 3.9959928 3.9959922 l -0.526773,-0.0015 c -0.377862,-0.0011 -0.561267,-0.01081 -0.648795,-0.03438 z"
     id="path2" />
</svg>
