<?xml version="1.0" encoding="UTF-8" standalone="no"?>
<!-- Created with Inkscape (http://www.inkscape.org/) -->

<svg
   id="svg7384"
   height="16"
   width="16"
   version="1.1"
   sodipodi:docname="media-playback-start-symbolic.svg"
   viewBox="0 0 16 16"
   inkscape:version="1.4.2 (ebf0e940d0, 2025-05-08)"
   xmlns:inkscape="http://www.inkscape.org/namespaces/inkscape"
   xmlns:sodipodi="http://sodipodi.sourceforge.net/DTD/sodipodi-0.dtd"
   xmlns="http://www.w3.org/2000/svg"
   xmlns:svg="http://www.w3.org/2000/svg"
   xmlns:rdf="http://www.w3.org/1999/02/22-rdf-syntax-ns#"
   xmlns:cc="http://creativecommons.org/ns#"
   xmlns:dc="http://purl.org/dc/elements/1.1/">
  <defs
     id="defs9" />
  <sodipodi:namedview
     pagecolor="#ffffff"
     bordercolor="#666666"
     borderopacity="1"
     objecttolerance="10"
     gridtolerance="10"
     guidetolerance="10"
     inkscape:pageopacity="0"
     inkscape:pageshadow="2"
     inkscape:window-width="1920"
     inkscape:window-height="1008"
     id="namedview7"
     showgrid="false"
     showguides="false"
     inkscape:zoom="43.1875"
     inkscape:cx="4.9088278"
     inkscape:cy="8.0115774"
     inkscape:window-x="0"
     inkscape:window-y="0"
     inkscape:window-maximized="1"
     inkscape:current-layer="svg7384"
     inkscape:showpageshadow="2"
     inkscape:pagecheckerboard="0"
     inkscape:deskcolor="#d1d1d1" />
  <metadata
     id="metadata90">
    <rdf:RDF>
      <cc:Work
         rdf:about="">
        <dc:format>image/svg+xml</dc:format>
        <dc:type
           rdf:resource="http://purl.org/dc/dcmitype/StillImage" />
        <dc:title>Gnome Symbolic Icon Theme</dc:title>
      </cc:Work>
    </rdf:RDF>
  </metadata>
  <title
     id="title9167">Gnome Symbolic Icon Theme</title>
  <g
     id="g4237">
    <g
       transform="matrix(1.0034563,0,0,0.99949841,-80.290333,-605.68952)"
       id="layer12">
      <path
         inkscape:connector-curvature="0"
         d="m 84,609 v 10 h 0.90625 0.094 c 0.17491,10e-4 0.34778,-0.0388 0.5,-0.125 l 7,-4 c 0.3107,-0.17189 0.46875,-0.52345 0.46875,-0.875 0,-0.35155 -0.15805,-0.70311 -0.46875,-0.875 l -7,-4 c -0.152,-0.09 -0.325,-0.13 -0.5,-0.13 H 84.9065 Z"
         style="color:#000000;text-indent:0;text-transform:none;fill:#bebebe"
         id="path3807-1-1-9-38-4" />
    </g>
  </g>
  <path
     style="fill:#000000;stroke-width:0.0231548"
     d="m 4.0057887,7.9983197 v -4.99155 l 0.6193922,0.00747 0.6193922,0.00747 0.1505065,0.071807 c 0.2259598,0.1078065 7.1537654,4.0549365 7.2474674,4.1292583 0.429657,0.3407895 0.457384,1.134688 0.05269,1.5087446 C 12.532823,8.8816408 5.45484,12.905428 5.2672275,12.954295 5.1625253,12.981566 4.999373,12.98987 4.5682177,12.98987 h -0.562429 z"
     id="path1" />
</svg>
