<?xml version="1.0" encoding="UTF-8" standalone="no"?>
<!-- Created with Inkscape (http://www.inkscape.org/) -->

<svg
   id="svg7384"
   height="16"
   width="16"
   version="1.1"
   sodipodi:docname="media-skip-forward-symbolic.svg"
   viewBox="0 0 16 16"
   inkscape:version="1.4.2 (ebf0e940d0, 2025-05-08)"
   xmlns:inkscape="http://www.inkscape.org/namespaces/inkscape"
   xmlns:sodipodi="http://sodipodi.sourceforge.net/DTD/sodipodi-0.dtd"
   xmlns="http://www.w3.org/2000/svg"
   xmlns:svg="http://www.w3.org/2000/svg"
   xmlns:rdf="http://www.w3.org/1999/02/22-rdf-syntax-ns#"
   xmlns:cc="http://creativecommons.org/ns#"
   xmlns:dc="http://purl.org/dc/elements/1.1/">
  <defs
     id="defs12" />
  <sodipodi:namedview
     pagecolor="#ffffff"
     bordercolor="#666666"
     borderopacity="1"
     objecttolerance="10"
     gridtolerance="10"
     guidetolerance="10"
     inkscape:pageopacity="0"
     inkscape:pageshadow="2"
     inkscape:window-width="1920"
     inkscape:window-height="1008"
     id="namedview10"
     showgrid="false"
     inkscape:zoom="43.1875"
     inkscape:cx="14.911722"
     inkscape:cy="7.8726483"
     inkscape:window-x="0"
     inkscape:window-y="0"
     inkscape:window-maximized="1"
     inkscape:current-layer="svg7384"
     inkscape:showpageshadow="2"
     inkscape:pagecheckerboard="0"
     inkscape:deskcolor="#d1d1d1" />
  <metadata
     id="metadata90">
    <rdf:RDF>
      <cc:Work
         rdf:about="">
        <dc:format>image/svg+xml</dc:format>
        <dc:type
           rdf:resource="http://purl.org/dc/dcmitype/StillImage" />
        <dc:title>Gnome Symbolic Icon Theme</dc:title>
      </cc:Work>
    </rdf:RDF>
  </metadata>
  <title
     id="title9167">Gnome Symbolic Icon Theme</title>
  <g
     id="g4248">
    <g
       transform="translate(-120,-606)"
       id="layer12">
      <g
         transform="translate(100,119)"
         id="g4399-9-1">
        <path
           inkscape:connector-curvature="0"
           transform="matrix(-1,0,0,1,76,-119)"
           d="m 55,610 c -0.17738,0.008 -0.35117,0.0592 -0.5,0.15625 l -5,3 c -0.2824,0.17971 -0.4375,0.51173 -0.4375,0.84375 0,0.33202 0.1551,0.66404 0.4375,0.84375 l 5,3 c 0.14883,0.097 0.32262,0.14825 0.5,0.15625 H 55.15625 56 v -8 h -0.84375 z"
           style="color:#000000;text-indent:0;text-transform:none;fill:#bebebe"
           id="path3807-1-1-4-90" />
        <path
           inkscape:connector-curvature="0"
           d="m 34,491 v 8 h 2 v -8 z"
           style="color:#000000;text-indent:0;text-transform:none;fill:#bebebe"
           id="path3807-1-1-9-3-0-98" />
        <path
           inkscape:connector-curvature="0"
           d="m 28,491 c 0.17738,0.008 0.35117,0.0592 0.5,0.15625 l 5,3 c 0.2824,0.17971 0.4375,0.51173 0.4375,0.84375 0,0.33202 -0.1551,0.66404 -0.4375,0.84375 l -5,3 C 28.35117,498.94075 28.17738,498.992 28,499 H 27.84375 27 v -8 h 0.84375 z"
           style="color:#000000;text-indent:0;text-transform:none;fill:#bebebe"
           id="path3807-1-1-4-7-8" />
      </g>
    </g>
  </g>
  <path
     style="fill:#000000;stroke-width:0.0231548"
     d="M 0,8 V 4.0017007 l 0.58465991,0.00886 c 0.52138559,0.00791 0.59730909,0.01396 0.70153969,0.05593 0.1955797,0.078754 5.2632235,3.131268 5.3614362,3.2294807 C 6.8120748,7.4604105 6.9227499,7.743633 6.9227499,8 c 0,0.256367 -0.1106751,0.5395895 -0.2751141,0.7040285 -0.098213,0.098213 -5.1658565,3.1507265 -5.3614362,3.2294805 -0.1042306,0.04197 -0.1801541,0.04802 -0.70153969,0.05593 L 0,11.998299 Z"
     id="path1" />
  <path
     style="fill:#000000;stroke-width:0.0231548"
     d="M 7.015919,8 V 4.0057887 h 0.5082669 c 0.5275095,0 0.6866602,0.018495 0.8462917,0.098346 0.050941,0.025482 1.2458753,0.7380491 2.6554104,1.5834833 2.006542,1.2035169 2.581355,1.5584626 2.648319,1.6353321 0.04704,0.053999 0.118097,0.165907 0.157903,0.2486856 0.06868,0.1428256 0.07238,0.1646866 0.07238,0.4283647 0,0.2644425 -0.0036,0.2853942 -0.07394,0.4339392 -0.04272,0.090174 -0.120935,0.2026142 -0.185239,0.2662808 -0.08178,0.080966 -0.783912,0.5133047 -2.646758,1.6297356 -1.3945009,0.835745 -2.5771348,1.540395 -2.6280754,1.565888 -0.1595945,0.07987 -0.3187353,0.09837 -0.8462917,0.09837 H 7.015919 Z"
     id="path2" />
  <path
     style="fill:#000000;stroke-width:0.0231548"
     d="M 14.008683,8 V 4.0057887 H 15.004342 16 V 8 11.994211 h -0.995658 -0.995659 z"
     id="path3" />
</svg>
