<?xml version="1.0" encoding="UTF-8" standalone="no"?>
<!-- Created with Inkscape (http://www.inkscape.org/) -->

<svg
   id="svg7384"
   height="16"
   width="16"
   version="1.1"
   sodipodi:docname="preferences-system-symbolic.svg"
   viewBox="0 0 16 16"
   inkscape:version="1.4.2 (ebf0e940d0, 2025-05-08)"
   xmlns:inkscape="http://www.inkscape.org/namespaces/inkscape"
   xmlns:sodipodi="http://sodipodi.sourceforge.net/DTD/sodipodi-0.dtd"
   xmlns="http://www.w3.org/2000/svg"
   xmlns:svg="http://www.w3.org/2000/svg"
   xmlns:rdf="http://www.w3.org/1999/02/22-rdf-syntax-ns#"
   xmlns:cc="http://creativecommons.org/ns#"
   xmlns:dc="http://purl.org/dc/elements/1.1/">
  <defs
     id="defs10" />
  <sodipodi:namedview
     pagecolor="#ffffff"
     bordercolor="#666666"
     borderopacity="1"
     objecttolerance="10"
     gridtolerance="10"
     guidetolerance="10"
     inkscape:pageopacity="0"
     inkscape:pageshadow="2"
     inkscape:window-width="1920"
     inkscape:window-height="1008"
     id="namedview8"
     showgrid="true"
     inkscape:zoom="43.1875"
     inkscape:cx="5.7424023"
     inkscape:cy="8.0115774"
     inkscape:window-x="0"
     inkscape:window-y="0"
     inkscape:window-maximized="1"
     inkscape:current-layer="svg7384"
     inkscape:showpageshadow="2"
     inkscape:pagecheckerboard="0"
     inkscape:deskcolor="#d1d1d1">
    <inkscape:grid
       type="xygrid"
       id="grid4233"
       originx="0"
       originy="0"
       spacingy="1"
       spacingx="1"
       units="px" />
  </sodipodi:namedview>
  <metadata
     id="metadata90">
    <rdf:RDF>
      <cc:Work
         rdf:about="">
        <dc:format>image/svg+xml</dc:format>
        <dc:type
           rdf:resource="http://purl.org/dc/dcmitype/StillImage" />
        <dc:title>Gnome Symbolic Icon Theme</dc:title>
      </cc:Work>
    </rdf:RDF>
  </metadata>
  <title
     id="title9167">Gnome Symbolic Icon Theme</title>
  <g
     id="g4953"
     transform="matrix(1.0088031,0,0,1.0014609,-445.94089,-462.66315)">
    <path
       id="path3908"
       style="color:#000000;text-indent:0;text-transform:none;fill:#bebebe"
       d="m 445.55,462.09 c -0.39933,0 -0.78638,0.0916 -1.1433,0.21572 l 1.8849,1.8797 c 0.38735,0.38627 0.38735,1.0004 0,1.3867 l -0.71069,0.70874 c -0.38735,0.38628 -1.0031,0.38628 -1.3905,0 l -1.8849,-1.8797 c -0.12444,0.35591 -0.2163,0.74191 -0.2163,1.1402 0,1.9061 1.5494,3.4513 3.4608,3.4513 0.39933,0 0.78638,-0.0916 1.1433,-0.2157 l 1.1742,1.171 a 2.4722,2.4654 0 0 1 0.0618,0 l 2.0703,-2.0646 -1.2051,-1.2018 c 0.12444,-0.35592 0.2163,-0.74191 0.2163,-1.1402 0,-1.9061 -1.5494,-3.4513 -3.4608,-3.4513 z m 6.5507,7.8886 -2.0703,2.0646 a 2.4722,2.4654 0 0 1 0.0309,0.0924 l 1.1433,1.1402 c -0.12444,0.35596 -0.2163,0.74196 -0.2163,1.1402 0,1.9061 1.5494,3.4513 3.4608,3.4513 0.43346,0 0.8536,-0.10141 1.236,-0.24653 l -2.0085,-2.003 c -0.38735,-0.38629 -0.38735,-1.0312 0,-1.4175 l 0.67979,-0.67792 c 0.19367,-0.19315 0.45794,-0.30816 0.71069,-0.30816 0.25276,0 0.51702,0.11501 0.7107,0.30816 l 1.9467,1.9413 c 0.10485,-0.32958 0.1854,-0.68351 0.1854,-1.0477 0,-1.9061 -1.5494,-3.4513 -3.4608,-3.4513 -0.39933,0 -0.78639,0.0916 -1.1433,0.2157 l -1.2051,-1.2018 z"
       inkscape:connector-curvature="0" />
    <path
       id="path3910"
       style="color:#000000;text-indent:0;text-transform:none;fill:#bebebe"
       d="m 455.86,462 -1.5425,1.4375 c -0.45151,0.42079 -0.5292,1.1488 -0.2663,1.7065 l -5.8882,5.9958 a 1.4917,1.4876 0 0 0 -0.0311,2.5e-4 1.4917,1.4876 0 0 0 -0.84016,-0.1484 1.4917,1.4876 0 0 0 -0.86663,0.44059 l -3.9462,3.9973 a 1.49411,1.49001 0 1 0 2.1294,2.0907 l 3.9462,-3.9973 a 1.4917,1.4876 0 0 0 0.29713,-1.7377 l 5.8885,-5.9648 c 0.55782,0.24837 1.2732,0.14697 1.7068,-0.2922 l 1.41,-1.57 -2,-1.97 z"
       inkscape:connector-curvature="0" />
  </g>
  <path
     style="fill:#000000;stroke-width:0.0231548"
     d="M 1.32941,15.973326 C 0.73480746,15.909382 0.20919071,15.451866 0.05809257,14.866724 0.01290219,14.69172 0.00787969,14.346435 0.04811275,14.180634 0.08653639,14.022291 0.21507531,13.747155 0.30485277,13.631086 0.39400857,13.515821 4.4104989,9.4742632 4.5595807,9.3498035 4.9508277,9.0231748 5.4683228,8.9383173 5.9830113,9.1163934 l 0.1827216,0.06322 1.2181467,-1.2281186 C 8.05386,7.2760289 9.3925647,5.9244173 10.358779,4.9479127 l 1.756752,-1.7754628 -0.06645,-0.2027228 c -0.05881,-0.1794061 -0.06645,-0.2360129 -0.06645,-0.4921584 0,-0.2429668 0.0089,-0.3166758 0.05558,-0.4591044 0.109287,-0.3336204 0.14718,-0.3758248 1.268115,-1.41237608 l 0.629048,-0.58169423 0.998609,0.97574751 0.998609,0.9757475 -0.09027,0.094545 c -0.04965,0.051999 -0.382941,0.4188949 -0.740645,0.8153231 -0.682336,0.7562042 -0.793978,0.8567481 -1.064383,0.9585699 -0.354811,0.1336053 -0.744437,0.1481424 -1.06738,0.039824 L 12.799448,3.8269756 10.44673,6.1913461 C 9.1527347,7.4917497 7.8157696,8.8370478 7.4756962,9.1808973 L 6.8573807,9.8060781 6.928678,10.014472 c 0.060036,0.175478 0.07159,0.244966 0.073153,0.439942 0.00283,0.352595 -0.0763,0.605175 -0.2747072,0.87689 -0.056998,0.07806 -1.0546999,1.097347 -2.217115,2.265088 l -2.1134823,2.123164 -0.2199711,0.104 C 1.8851669,15.961322 1.6327526,16.005947 1.32941,15.973326 Z"
     id="path1" />
  <path
     style="fill:#000000;stroke-width:0.0231548"
     d="M 5.2811665,7.3761086 4.6888567,6.7869495 4.4688857,6.8524427 C 4.1385519,6.9507953 3.8503234,6.9928215 3.5096678,6.9923054 3.0370091,6.9915892 2.6893559,6.9269131 2.257325,6.7593236 1.7999339,6.5818968 1.4009376,6.3168871 1.0419682,5.9520947 0.16019281,5.0560157 -0.15178194,3.8232271 0.20197631,2.6328118 L 0.26249751,2.429155 1.2600476,3.4225887 c 0.8927517,0.8890679 1.0133617,1.0009727 1.1480566,1.0651948 0.3030937,0.144514 0.6014467,0.1448489 0.9065725,0.00102 C 3.4393836,4.4300161 3.5339476,4.3469624 3.9388698,3.9405849 4.4608292,3.41675 4.5186561,3.3345961 4.5679405,3.0468754 c 0.019398,-0.1132411 0.019398,-0.1917977 0,-0.3050388 C 4.512941,2.4207509 4.5119762,2.4195705 3.4107878,1.3260584 2.2582115,0.1815163 2.3434193,0.32417227 2.7509752,0.2213904 3.0920841,0.13536584 3.3542879,0.1079372 3.6931983,0.12282621 5.134526,0.18614664 6.3960452,1.1398979 6.8384243,2.5007236 6.961117,2.8781448 7.0004775,3.1308559 7.0007141,3.5426918 7.0009364,3.9296139 6.9581441,4.2004805 6.8452462,4.5267728 L 6.7891647,4.6888567 7.3945822,5.2985713 8,5.908286 6.9580318,6.936383 C 6.3849493,7.5018364 5.9064815,7.9646571 5.89477,7.9648739 5.8830585,7.9650906 5.606937,7.7001461 5.2811665,7.3761086 Z"
     id="path2" />
  <path
     style="fill:#000000;stroke-width:0.0231548"
     d="m 11.982634,15.850551 c -1.441874,-0.226452 -2.5804636,-1.30277 -2.8868543,-2.728967 -0.041467,-0.19302 -0.050712,-0.311688 -0.050854,-0.652698 -1.841e-4,-0.443323 0.016894,-0.56109 0.1405571,-0.969242 L 9.2476342,11.294512 8.6663998,10.717085 C 8.3467209,10.3995 8.0799689,10.126115 8.0736175,10.109564 8.0633454,10.082795 8.6331421,9.5051489 9.7994184,8.3599881 l 0.3406626,-0.3344953 0.603578,0.5972846 c 0.460743,0.4559391 0.613005,0.5936053 0.643418,0.5817369 0.103493,-0.040388 0.47782,-0.1320371 0.665021,-0.1628221 0.114617,-0.018849 0.335,-0.034312 0.48974,-0.034363 1.132536,-3.748e-4 2.232783,0.5908456 2.865352,1.5397038 0.54796,0.821944 0.709097,1.794927 0.453714,2.739636 l -0.05207,0.192603 -1.033218,-1.027064 c -0.909949,-0.904528 -1.051372,-1.036099 -1.185388,-1.102801 -0.31395,-0.156257 -0.629056,-0.151172 -0.930935,0.01502 -0.119043,0.06554 -0.261499,0.190715 -0.60685,0.533245 -0.377199,0.374118 -0.462682,0.471473 -0.520679,0.592994 -0.155131,0.325049 -0.127291,0.728577 0.07044,1.020956 0.03474,0.05137 0.527813,0.553394 1.095725,1.115619 l 1.032566,1.022227 -0.121399,0.04508 c -0.15719,0.05837 -0.477729,0.136505 -0.679836,0.165721 -0.21539,0.03113 -0.719448,0.02596 -0.946629,-0.0097 z"
     id="path3" />
</svg>
